<svg height="512pt" viewBox="0 -5 512.00024 512" width="512pt" xmlns="http://www.w3.org/2000/svg"><path d="m506.097656 254.203125c-3.902344 3.875-9 5.8125-14.097656 5.8125-5.140625 0-10.277344-1.96875-14.1875-5.902344l-15.8125-15.917969v72.820313c0 11.046875-8.953125 20-20 20s-20-8.953125-20-20v-113.082031l-152.105469-153.109375c-7.464843-6.394531-18.457031-6.417969-25.949219-.054688l-153.972656 153.667969c.003906.195312.027344.382812.027344.578125v212c0 22.054687 17.945312 40 40 40h25c11.046875 0 20 8.953125 20 20s-8.953125 20-20 20h-25c-44.113281 0-80-35.886719-80-80v-172.683594l-15.871094 15.839844c-7.816406 7.804687-20.480468 7.792969-28.285156-.027344-7.804688-7.816406-7.789062-20.480469.027344-28.285156l210.289062-209.875c.269532-.265625.546875-.527344.828125-.78125 22.84375-20.335937 57.230469-20.261719 79.984375.167969.28125.253906.558594.515625.824219.785156l208.390625 209.765625c7.785156 7.835937 7.746094 20.5-.089844 28.28125zm-64.097656 136.8125c-11.046875 0-20 8.953125-20 20 0 22.054687-17.945312 40-40 40h-25c-11.046875 0-20 8.953125-20 20s8.953125 20 20 20h25c44.113281 0 80-35.886719 80-80 0-11.046875-8.953125-20-20-20zm-60-73.144531c-.050781 53.554687-31.90625 87.984375-62.710938 121.277344-15.09375 16.3125-30.699218 33.175781-42.945312 52.554687-3.664062 5.796875-10.046875 9.3125-16.90625 9.3125h-6.875c-6.859375 0-13.242188-3.515625-16.90625-9.3125-12.246094-19.378906-27.851562-36.242187-42.945312-52.554687-30.804688-33.292969-62.65625-67.722657-62.710938-121.234376.082031-69.4375 56.605469-125.898437 126-125.898437 69.398438 0 125.917969 56.457031 126 125.855469zm-40 .003906c-.054688-47.324219-38.632812-85.859375-86-85.859375s-85.945312 38.535156-86 85.902344c.035156 37.828125 23 62.644531 52.070312 94.066406 11.40625 12.324219 23.082032 24.945313 33.929688 39.101563 10.847656-14.15625 22.523438-26.777344 33.929688-39.101563 29.070312-31.421875 52.035156-56.242187 52.070312-94.109375zm-86.898438-54.859375c-30.328124 0-55 24.671875-55 55s24.671876 55 55 55c11.046876 0 20-8.953125 20-20s-8.953124-20-20-20c-8.269531 0-15-6.730469-15-15s6.730469-15 15-15c8.269532 0 15 6.730469 15 15 0 11.046875 8.953126 20 20 20 11.046876 0 20-8.953125 20-20 0-30.328125-24.671874-55-55-55zm0 0"/></svg>