<svg id="Flat" height="512" viewBox="0 0 512 512" width="512" xmlns="http://www.w3.org/2000/svg"><path d="m488 128v48h-464v-48a32 32 0 0 1 32-32h24v40h32v-40h32v40h32v-40h160v40h32v-40h32v40h32v-40h24a32 32 0 0 1 32 32z" fill="#eb423f"/><path d="m24 176v256a32 32 0 0 0 32 32h344v-128h32v32h56v-192zm88 256h-32v-32h32zm0-64h-32v-32h32zm0-64h-32v-32h32zm80 128h-32v-32h32zm0-64h-32v-32h32zm0-64h-32v-32h32zm0-64h-32v-32h32zm80 192h-32v-32h32zm0-64h-32v-32h32zm0-64h-32v-32h32zm0-64h-32v-32h32zm80 192h-32v-32h32zm0-64h-32v-32h32zm0-128h-32v-32h32zm80 64h-32v-32h32zm0-64h-32v-32h32z" fill="#dadcde"/><g fill="#9aa3a8"><path d="m160 208h32v32h-32z"/><path d="m240 208h32v32h-32z"/><path d="m320 208h32v32h-32z"/><path d="m400 208h32v32h-32z"/><path d="m160 272h32v32h-32z"/><path d="m240 272h32v32h-32z"/><path d="m400 272h32v32h-32z"/><path d="m160 336h32v32h-32z"/><path d="m240 336h32v32h-32z"/><path d="m320 336h32v32h-32z"/><path d="m400 336h32v32h-32z"/><path d="m160 400h32v32h-32z"/><path d="m80 272h32v32h-32z"/><path d="m80 336h32v32h-32z"/><path d="m80 400h32v32h-32z"/><path d="m240 400h32v32h-32z"/><path d="m320 400h32v32h-32z"/></g><path d="m488 368v64a32 32 0 0 1 -32 32h-56z" fill="#dadcde"/><path d="m488 368-88 96v-96z" fill="#c3c6c7"/><path d="m352 312a7.974 7.974 0 0 1 -5.657-2.343l-32-32a8 8 0 0 1 11.314-11.314l32 32a8 8 0 0 1 -5.657 13.657z" fill="#eb423f"/><path d="m320 312a8 8 0 0 1 -5.657-13.657l32-32a8 8 0 0 1 11.314 11.314l-32 32a7.974 7.974 0 0 1 -5.657 2.343z" fill="#eb423f"/><path d="m80 48h32v88h-32z" fill="#dadcde"/><path d="m144 48h32v88h-32z" fill="#dadcde"/><path d="m336 48h32v88h-32z" fill="#dadcde"/><path d="m400 48h32v88h-32z" fill="#dadcde"/></svg>