<?xml version="1.0" encoding="iso-8859-1"?>
<!-- Generator: Adobe Illustrator 19.0.0, SVG Export Plug-In . SVG Version: 6.00 Build 0)  -->
<svg version="1.1" id="Capa_1" xmlns="http://www.w3.org/2000/svg" xmlns:xlink="http://www.w3.org/1999/xlink" x="0px" y="0px"
	 viewBox="0 0 512 512" style="enable-background:new 0 0 512 512;" xml:space="preserve">
<g>
	<g>
		<g>
			<circle cx="291" cy="293.5" r="25"/>
			<circle cx="361" cy="293.5" r="25"/>
			<circle cx="221" cy="293.5" r="25"/>
			<circle cx="151" cy="293.5" r="25"/>
			<path d="M492,76H20C8.954,76,0,84.954,0,96v320c0,11.046,8.954,20,20,20h472c11.046,0,20-8.954,20-20V96
				C512,84.954,503.046,76,492,76z M472,396H40V116h432V396z"/>
			<path d="M151,213.5h210c11.046,0,20-8.954,20-20s-8.954-20-20-20H151c-11.046,0-20,8.954-20,20S139.954,213.5,151,213.5z"/>
		</g>
	</g>
</g>
<g>
</g>
<g>
</g>
<g>
</g>
<g>
</g>
<g>
</g>
<g>
</g>
<g>
</g>
<g>
</g>
<g>
</g>
<g>
</g>
<g>
</g>
<g>
</g>
<g>
</g>
<g>
</g>
<g>
</g>
</svg>
