<?xml version="1.0" encoding="iso-8859-1"?>
<!-- Generator: Adobe Illustrator 19.0.0, SVG Export Plug-In . SVG Version: 6.00 Build 0)  -->
<svg version="1.1" id="Capa_1" xmlns="http://www.w3.org/2000/svg" xmlns:xlink="http://www.w3.org/1999/xlink" x="0px" y="0px"
	 viewBox="0 0 480.653 480.653" style="enable-background:new 0 0 480.653 480.653;" xml:space="preserve">
<g>
	<g>
		<path d="M389.451,252.343l-77.845-84.637l77.845-84.114c2.763-2.76,3.399-7,1.567-10.449c-1.604-3.658-5.451-5.795-9.404-5.224
			H130.317v-7.314c11.943-4.911,19.911-16.352,20.375-29.257C150.692,14.034,136.658,0,119.345,0
			c-17.024-0.002-30.826,13.796-30.829,30.82c0,0.176,0.001,0.351,0.004,0.527c0.684,12.987,8.835,24.398,20.898,29.257v409.6
			c0,5.771,4.678,10.449,10.449,10.449s10.449-4.678,10.449-10.449V271.673h251.298c4.252-0.496,7.876-3.315,9.404-7.314
			C392.956,260.402,392.339,255.67,389.451,252.343z M119.345,41.796c-5.771,0-10.449-4.678-10.449-10.449
			s4.678-10.449,10.449-10.449s10.449,4.678,10.449,10.449S125.116,41.796,119.345,41.796z M130.317,250.776V88.816h227.788
			l-67.918,72.62c-3.725,4.165-3.725,10.464,0,14.629l67.918,74.71H130.317z"/>
	</g>
</g>
<g>
</g>
<g>
</g>
<g>
</g>
<g>
</g>
<g>
</g>
<g>
</g>
<g>
</g>
<g>
</g>
<g>
</g>
<g>
</g>
<g>
</g>
<g>
</g>
<g>
</g>
<g>
</g>
<g>
</g>
</svg>
