<?xml version="1.0" encoding="iso-8859-1"?>
<!-- Generator: Adobe Illustrator 19.0.0, SVG Export Plug-In . SVG Version: 6.00 Build 0)  -->
<svg version="1.1" id="Capa_1" xmlns="http://www.w3.org/2000/svg" xmlns:xlink="http://www.w3.org/1999/xlink" x="0px" y="0px"
	 viewBox="0 0 508.1 508.1" style="enable-background:new 0 0 508.1 508.1;" xml:space="preserve">
<g>
	<g>
		<path d="M448.85,262.2l-44.7-98.3l44.7-98.3h-258.7c5.3-7,8.4-15.6,8.4-24.6c0-22.6-18.4-41-41-41c-22.6,0-41,18.4-41,41
			c0,12.8,6.2,24.9,16.4,32.6v321.5c-43.8,6.3-73.7,28.6-73.7,55.6c0,32.2,43.2,57.4,98.3,57.4c55.1,0,98.3-25.2,98.3-57.4
			c0-27-30-49.2-73.7-55.6V262.2H448.85z M423.45,81.9l-37.3,82l37.2,81.9h-241.2V81.9H423.45z M182.25,458.8v-47.2
			c33.1,5.5,57.2,21.5,57.2,39c0,22.2-37.5,41-81.9,41c-44.4,0-81.9-18.8-81.9-41c0-17.6,24.1-33.5,57.4-39v47.2H182.25z
			 M165.75,64.5v378h-16.4v-378c0,0-16.4-6.5-16.4-23.5c0-13.6,11.1-24.6,24.6-24.6c13.6,0,24.6,11,24.6,24.6
			C182.15,57.9,165.75,64.5,165.75,64.5z"/>
	</g>
</g>
<g>
</g>
<g>
</g>
<g>
</g>
<g>
</g>
<g>
</g>
<g>
</g>
<g>
</g>
<g>
</g>
<g>
</g>
<g>
</g>
<g>
</g>
<g>
</g>
<g>
</g>
<g>
</g>
<g>
</g>
</svg>
